<?xml version="1.0" encoding="UTF-8"?><svg id="Layer_2" xmlns="http://www.w3.org/2000/svg" viewBox="0 0 413.82 258.87"><defs><style>.cls-1{fill:#fff;}</style></defs><g id="Layer_1-2"><g><path class="cls-1" d="M413.82,173.91c-1.88,.07-3.76,.19-5.65,.19-40.84,.01-81.67,0-122.51,0h-4.75c-1.76,21.17,9.09,39.79,28.53,44.79,14.7,3.77,28.85,2.65,42.11-5.23,5.8-3.45,10.41-8.03,13.2-14.32,.41-.93,1.55-2.19,2.36-2.2,14.12-.13,28.25-.1,42.23-.1,.24,.62,.47,.9,.41,1.09-7.81,24.13-21.5,43.28-45.62,53.47-14.7,6.21-30.19,7.87-45.93,7.09-23.93-1.19-45.44-8.63-62.6-26.07-14.74-14.98-22.27-33.43-24.93-54.02-3.06-23.75-.18-46.62,11.82-67.63,15.88-27.79,40.35-42.55,72.03-45.55,19.4-1.84,37.93,1.18,54.89,11.15,22.65,13.32,35.11,33.94,41.05,58.93,1.55,6.5,2.25,13.19,3.35,19.8v18.6Zm-51.32-31.75c-1.35-23.11-14.26-39.17-40.13-39.05-29.98,.14-41.33,21.7-41.71,39.05h81.83Z"/><path class="cls-1" d="M167.99,115.4c6.97,3.77,14.42,6.94,20.92,11.47,14.25,9.93,21.05,24.54,23.3,41.34,2.17,16.23,.54,32.03-7.47,46.67-9.39,17.16-24.5,27.18-42.56,33.25-11.44,3.85-23.29,5.77-35.34,5.81-41.51,.13-83.02,.07-124.53,.07-.67,0-1.33-.06-2.31-.11V0H4.16c38.28,0,76.55-.02,114.83,0,15.42,0,30.69,1.16,45.36,6.43,22.94,8.23,34.93,24.94,36.48,48.86,.54,8.34-.17,17.04-1.99,25.2-3.24,14.49-12.95,24.49-25.52,31.87-1.94,1.14-3.91,2.23-5.32,3.04ZM55.81,210.76c1.23,.09,2.03,.2,2.82,.2,19.14,0,38.27,.09,57.41-.08,4.82-.04,9.7-.59,14.44-1.47,14.47-2.68,23.62-11.07,25.68-24.32,.88-5.62,.74-11.61-.12-17.26-2.14-14.15-10.99-22.42-24.74-25.32-5.1-1.07-10.41-1.54-15.63-1.59-18.73-.18-37.46-.08-56.19-.06-1.17,0-2.33,.16-3.66,.26v69.64Zm.02-108.09h3.66c17.65,0,35.3,.04,52.95-.04,3.35-.02,6.74-.3,10.05-.85,12.69-2.09,20.96-9.35,23.22-20.98,.86-4.41,.84-9.12,.43-13.63-.88-9.73-6.15-16.85-15.3-19.96-6.26-2.13-13.08-3.37-19.7-3.56-17.5-.5-35.03-.21-52.54-.21-.89,0-1.77,.24-2.77,.38v58.86Z"/><path class="cls-1" d="M373.24,13.73v24.27h-103.03V13.73h103.03Z"/></g></g></svg>