<?xml version="1.0" encoding="UTF-8"?><svg id="Layer_2" xmlns="http://www.w3.org/2000/svg" viewBox="0 0 161.65 311.59"><defs><style>.cls-1{fill:#fff;}</style></defs><g id="Layer_1-2"><path class="cls-1" d="M134.99,0c5.24,.41,10.48,.8,15.71,1.23,3.62,.3,7.23,.64,10.94,.97V51.77c-1.49,0-2.87-.02-4.25,0-10.45,.15-20.91-.01-31.34,.55-12.96,.7-20.15,7.55-20.73,20.49-.61,13.56-.14,27.17-.14,41.21h54.63c-2.42,18.75-4.77,37-7.16,55.55h-47.59v142.02H47.79V169.7H0v-55.46H47.74c0-1.56,0-2.74,0-3.91,.06-14.51-.3-29.04,.29-43.53,.72-17.47,5.87-33.5,18.2-46.55,9.37-9.93,21.06-15.62,34.29-18.35,3.55-.73,7.14-1.26,10.71-1.89,7.92,0,15.83,0,23.75,0Z"/></g></svg>