<?xml version="1.0" encoding="UTF-8"?><svg id="Layer_2" xmlns="http://www.w3.org/2000/svg" viewBox="0 0 304.26 249.96"><defs><style>.cls-1{fill:#fff;}</style></defs><g id="Layer_1-2"><path class="cls-1" d="M0,221.82c33.67,2.28,63.88-5.78,91.37-26.53-28.86-2.66-47.83-17.17-58.55-43.96h27.12l.15-1.03c-30.38-9.52-46.73-29.98-49.16-62.57,9.2,4.41,17.88,7.46,28.16,7.57-15.91-12.8-25.76-28.28-27.36-48.18-1-12.51,2.34-24.11,8.61-35.47,34.02,39.71,76.44,62.04,128.01,65.34,0-7.02-.43-13.49,.07-19.87C151,24.57,178.94-.53,211.69,0c16.72,.27,31.08,6.31,43.12,17.86,1.51,1.45,2.77,1.9,4.91,1.38,11.68-2.86,22.87-6.93,33.43-12.7,.65-.36,1.32-.7,2-1,.17-.07,.44,.07,1.13,.21-4.66,14.04-13.4,24.75-25.64,32.84l.58,1.25c10.91-3.03,21.82-6.05,33.05-9.17-.86,1.29-1.72,2.67-2.67,3.99-7.12,9.89-15.6,18.49-25.31,25.81-2.15,1.63-2.84,3.21-2.75,5.87,2.24,70.11-39.43,139.28-102.67,167.03-56.98,25.01-113.27,21.65-167.56-9.39-1.14-.65-2.21-1.44-3.31-2.16Z"/></g></svg>