<?xml version="1.0" encoding="UTF-8"?><svg id="Layer_2" xmlns="http://www.w3.org/2000/svg" viewBox="0 0 259.02 258.87"><defs><style>.cls-1{fill:#fff;}</style></defs><g id="Layer_1-2"><path class="cls-1" d="M0,137.06c0-5.06,0-10.12,0-15.17,.16-.89,.34-1.78,.46-2.68,.62-4.67,.98-9.39,1.86-14.01,4.9-25.79,16.64-48.07,35.09-66.7C56.76,18.97,80,6.68,107.16,1.99c4.88-.84,9.82-1.34,14.73-1.99h15.17c.74,.15,1.47,.31,2.21,.44,8.2,1.4,16.58,2.13,24.57,4.28,64.82,17.47,105.61,83.07,92.85,148.95-5.41,27.94-18.46,51.76-39.47,70.89-29.98,27.3-65.42,38.19-105.57,33.09-25.57-3.25-48.11-13.74-67.43-30.81C21.46,206.75,7.23,181.74,1.99,151.75,1.14,146.89,.65,141.96,0,137.06Zm78.09-56.38c-3.2,13.5-4.97,27.12-5.34,41.06h48.98v-38.02c-14.58-1.01-29-2.02-43.63-3.03Zm108.11,41.06c-.37-13.93-2.12-27.51-5.29-40.73-14.79,.93-29.27,1.85-43.71,2.76v37.97h49Zm-171.12-.02H56.8c1.86-14.68,3.7-29.14,5.5-43.36-9.4-2.33-19.03-4.65-28.62-7.17-1.73-.45-2.48-.21-3.36,1.34-5.31,9.35-9.42,19.2-11.79,29.68-1.43,6.36-2.3,12.85-3.45,19.5Zm187.03,15.46c-1.86,14.39-3.68,28.53-5.51,42.68,10.15,2.39,20.75,4.88,31.48,7.4,8.99-15.35,14.17-32,15.35-50.08h-41.32Zm25.99-65.46c-10.73,2.4-21.26,4.75-31.37,7.01,1.8,14.32,3.6,28.62,5.4,42.93h41.32c-1.26-18.05-6.36-34.67-15.35-49.94Zm-90.9,102.72c14.6,1,29.07,2,43.65,3,3.15-13.19,4.89-26.56,5.34-40.18h-48.99v37.18Zm-59.13,2.7c14.74-.92,29.16-1.82,43.67-2.72v-37.21h-48.99c.52,13.63,2.14,26.93,5.32,39.93ZM15.76,137.2c-.07,.34-.17,.58-.15,.81,1.14,16.98,6,32.84,14.41,47.61,.32,.57,1.83,.87,2.64,.69,8.04-1.79,16.04-3.72,24.06-5.56,2-.46,4.05-.75,5.59-1.02-1.84-14.39-3.62-28.36-5.44-42.52H15.76ZM137.26,16.42v52.04c13.19-.79,26.15-1.57,39.41-2.37-1.25-3.31-2.17-6.02-3.29-8.64-4.71-11.06-10.35-21.56-18.91-30.2-4.85-4.89-10.3-8.87-17.21-10.83Zm-15.52,225.28v-51.96c-13.13,.78-26.1,1.56-39.14,2.34,2.61,10.99,12.31,28.52,20.27,37.06,5.24,5.62,11.12,10.23,18.87,12.57Zm0-225.27c-5.16,1.38-9.44,3.97-13.33,7.24-10.88,9.14-17.48,21.18-22.91,34-1.07,2.52-1.95,5.11-3.09,8.12,13.38,.89,26.27,1.75,39.33,2.61V16.43Zm15.5,173.34v52.27c22.41-9.33,31.05-28.93,39.44-49.69-13.48-.88-26.37-1.73-39.44-2.59Zm-97.38,10.09c7.61,12.7,39.04,35.76,48.33,35.53-9.78-12.29-16.18-26.21-21.21-41.2-9.06,1.89-17.93,3.75-27.13,5.67Zm131.12,35.77c19.07-7.16,34.75-18.85,47.96-35.09-9.36-2.06-18.17-4-27.11-5.97-4.98,14.94-11.46,28.7-20.85,41.06ZM218.95,58.4c-13.07-16.06-28.57-27.67-47.04-35.06,3.83,6.48,7.98,12.74,11.35,19.4,3.4,6.72,6.04,13.83,9.19,21.19,8.48-1.77,17.25-3.6,26.5-5.53ZM87.33,23.46c-18.51,7.19-33.86,18.57-46.77,34.26,9.16,2.01,17.82,3.91,26.58,5.83,4.79-14.67,11.2-28,20.19-40.09Z"/></g></svg>